<svg id="react" xmlns="http://www.w3.org/2000/svg" width="18.115" height="22.096" viewBox="0 0 18.115 22.096">
  <ellipse id="Ellipse_2" data-name="Ellipse 2" cx="1.655" cy="1.655" rx="1.655" ry="1.655" transform="translate(7.403 6.424)" fill="#61dafb"/>
  <path id="Path_5" data-name="Path 5" d="M22.157,16.265a5.9,5.9,0,0,0,3.612,2.011,1.788,1.788,0,0,0,.925-.231c.925-.534,1.263-1.868.943-3.772-.053-.338-.125-.676-.214-1.032.356-.107.676-.214,1-.32,1.8-.694,2.794-1.655,2.794-2.7,0-1.068-1-2.029-2.794-2.7a8.163,8.163,0,0,0-1-.32c.089-.356.16-.694.214-1.032.3-1.94-.036-3.292-.961-3.826a1.788,1.788,0,0,0-.925-.231A5.946,5.946,0,0,0,22.14,4.111,5.823,5.823,0,0,0,18.545,2.1a1.788,1.788,0,0,0-.925.231c-.925.534-1.263,1.868-.943,3.772.053.338.125.676.214,1.032-.356.107-.676.214-1,.32-1.8.694-2.794,1.655-2.794,2.7,0,1.068,1,2.029,2.794,2.7a8.163,8.163,0,0,0,1,.32c-.089.356-.16.694-.214,1.032-.3,1.9.036,3.256.943,3.772a1.788,1.788,0,0,0,.925.231c1.032.036,2.313-.712,3.612-1.957Zm-1-2.4c.32.018.658.018,1,.018s.676,0,1-.018c-.32.427-.658.819-1,1.192C21.819,14.681,21.481,14.289,21.161,13.862Zm-2.207-1.833c.178.3.338.587.534.872-.552-.071-1.068-.16-1.566-.267.16-.48.338-.979.552-1.477.142.285.3.587.48.872ZM17.922,7.741c.5-.107,1.014-.2,1.566-.267-.178.285-.356.569-.534.872s-.338.587-.48.89A11.9,11.9,0,0,1,17.922,7.741Zm.979,2.438c.231-.48.48-.961.765-1.441.267-.463.569-.925.872-1.388.534-.036,1.068-.053,1.619-.053.569,0,1.1.018,1.619.053.32.463.605.925.872,1.388.285.48.534.961.765,1.441-.231.48-.48.961-.765,1.441-.267.463-.569.925-.872,1.388-.534.036-1.068.053-1.619.053-.569,0-1.1-.018-1.619-.053-.32-.463-.605-.925-.872-1.388C19.382,11.14,19.132,10.659,18.9,10.179Zm6.958-.961-.48-.89c-.178-.3-.338-.587-.534-.872.552.071,1.068.16,1.566.267-.16.5-.338,1-.552,1.495Zm0,1.922c.214.5.391,1,.552,1.477-.5.107-1.014.2-1.566.267.178-.285.356-.569.534-.872.16-.267.32-.569.48-.872Zm.409,6.175a.966.966,0,0,1-.516.125,5.047,5.047,0,0,1-3.025-1.779,18.631,18.631,0,0,0,1.513-1.868,16.3,16.3,0,0,0,2.384-.374,9.2,9.2,0,0,1,.2.961C27.069,15.891,26.873,16.976,26.268,17.314Zm.925-9.378c1.993.569,3.185,1.441,3.185,2.242,0,.694-.819,1.388-2.26,1.94-.285.107-.605.214-.925.3a18.7,18.7,0,0,0-.872-2.242,16.117,16.117,0,0,0,.872-2.242ZM25.77,2.919a1.008,1.008,0,0,1,.516.125c.587.338.8,1.406.552,2.936-.053.3-.125.623-.2.961a23.093,23.093,0,0,0-2.384-.374A16.441,16.441,0,0,0,22.745,4.7,5.14,5.14,0,0,1,25.77,2.919ZM23.154,6.5c-.32-.018-.658-.018-1-.018s-.676,0-1,.018c.32-.427.658-.819,1-1.192.338.374.676.783,1,1.192ZM18.047,3.043a.966.966,0,0,1,.516-.125A5.047,5.047,0,0,1,21.588,4.7a18.631,18.631,0,0,0-1.513,1.868,16.3,16.3,0,0,0-2.384.374,9.2,9.2,0,0,1-.2-.961C17.246,4.467,17.442,3.4,18.047,3.043Zm-.925,9.378c-1.993-.569-3.185-1.441-3.185-2.242,0-.694.819-1.388,2.26-1.94.285-.107.605-.214.925-.3a18.7,18.7,0,0,0,.872,2.242A17.027,17.027,0,0,0,17.122,12.421Zm.374,1.957c.053-.3.125-.623.2-.961a23.093,23.093,0,0,0,2.384.374,16.441,16.441,0,0,0,1.513,1.868,5.14,5.14,0,0,1-3.025,1.779,1.008,1.008,0,0,1-.516-.125C17.442,16.976,17.246,15.891,17.5,14.378Zm-.747,7.331a1.451,1.451,0,0,0,.2-1.548,1.253,1.253,0,0,0-1.21-.8c-.658-.018-1.335,0-1.993,0h-.125V23.97h.534V22.226h.836a.269.269,0,0,1,.249.125L16.3,24.005c.018.036.071.089.107.089H17.1c-.427-.658-.836-1.281-1.263-1.922A1.292,1.292,0,0,0,16.748,21.71Zm-2.6-.036V19.912h.2c.409,0,.836-.018,1.246.018a.84.84,0,0,1,.819.872.885.885,0,0,1-.872.872C15.111,21.692,14.684,21.674,14.15,21.674Zm6.887.231a1.605,1.605,0,0,0-2.3-1.174,1.683,1.683,0,0,0-1,1.619,1.725,1.725,0,0,0,.569,1.424,1.889,1.889,0,0,0,1.673.374,1.632,1.632,0,0,0,.872-.48c-.089-.125-.178-.249-.267-.356a1.441,1.441,0,0,1-1.655.285,1.322,1.322,0,0,1-.623-1.032h2.758v-.231A1.1,1.1,0,0,0,21.036,21.905Zm-2.687.285a1.1,1.1,0,0,1,1.068-1.1,1.024,1.024,0,0,1,1.121,1.1Zm5.463-1.548a3.171,3.171,0,0,0-.819-.053,1.692,1.692,0,0,0-1.1.552c.089.125.16.249.267.391a.472.472,0,0,1,.107-.089,1.29,1.29,0,0,1,1.032-.374.69.69,0,0,1,.712.445,3.771,3.771,0,0,1,.071.783.1.1,0,0,1-.089-.036,1.537,1.537,0,0,0-1.424-.3,1.059,1.059,0,0,0-.819.979,1.086,1.086,0,0,0,.694,1.157,1.609,1.609,0,0,0,.961.053c.249-.053.356-.2.712-.391v.231h.5c0-.712.018-1.584,0-2.4a.912.912,0,0,0-.8-.943Zm.249,2.242a.484.484,0,0,0,0,.16c0,.374-.089.5-.445.641a1.18,1.18,0,0,1-.783.036.7.7,0,0,1-.516-.658.689.689,0,0,1,.48-.694,1.16,1.16,0,0,1,1.121.2A.3.3,0,0,1,24.061,22.884Zm2.776-1.762a1.056,1.056,0,0,1,1.21.338l.053.036c.125-.107.231-.214.374-.338a.743.743,0,0,1-.107-.142,1.741,1.741,0,0,0-2.153-.178,1.965,1.965,0,0,0-.427,2.545,1.63,1.63,0,0,0,1.69.747,1.5,1.5,0,0,0,1.014-.587c-.125-.107-.249-.214-.374-.338a.312.312,0,0,0-.071.089,1.09,1.09,0,0,1-1.708-.089,1.407,1.407,0,0,1-.231-1.121,1.043,1.043,0,0,1,.73-.961Zm3.7,2.42a.22.22,0,0,0-.053.036.45.45,0,0,1-.445.071c-.16-.071-.178-.214-.2-.356V21.265c0-.036,0,.036.018-.142h.676v-.534h-.712V19.7h-.534v.961H28.83c-.036,0-.089.036-.089.071a2.844,2.844,0,0,0,0,.391h.569V23.4a.706.706,0,0,0,.32.676,1.031,1.031,0,0,0,1.014-.071c.036-.018.053-.089.053-.107C30.645,23.792,30.592,23.667,30.539,23.542Z" transform="translate(-13.1 -2.1)" fill="#61dafb"/>
</svg>
